<svg xmlns="http://www.w3.org/2000/svg" width="123" height="25" viewBox="0 0 123 25" fill="none"><path d="M36.8516 0.170219C29.0274 7.20904 23.3828 22.7093 23.3828 22.7093L23.3799 22.7024C23.3747 22.7173 23.3707 22.7326 23.3652 22.7474C23.2244 23.1276 23.0024 23.4791 22.7119 23.7815C22.4212 24.0841 22.0671 24.3325 21.6709 24.511C21.2748 24.6895 20.8436 24.7951 20.4023 24.8226C19.961 24.85 19.518 24.799 19.0986 24.6712C18.6792 24.5434 18.2915 24.3411 17.958 24.0774C17.6246 23.8139 17.3511 23.4933 17.1543 23.1341L11.0332 11.9651C11.8257 11.6077 12.6883 11.3953 13.5713 11.3401C14.4543 11.285 15.3406 11.3883 16.1797 11.6439C17.0189 11.8995 17.7945 12.3029 18.4619 12.8304C19.1292 13.3578 19.6754 13.9992 20.0693 14.7181L20.2705 15.0862C26.6164 1.53795 36.7793 0.179713 36.8516 0.170219ZM2.53809 8.42706C3.42081 8.37212 4.30679 8.47616 5.14551 8.73174C5.98434 8.98737 6.75963 9.38998 7.42676 9.91729C8.09388 10.4446 8.64033 11.0863 9.03418 11.805L15.8213 24.1898C15.0289 24.5469 14.1669 24.7597 13.2842 24.8148C12.4013 24.8697 11.5146 24.7667 10.6758 24.511C9.83697 24.2554 9.06164 23.8518 8.39453 23.3245C7.72769 22.7974 7.18186 22.1562 6.78809 21.4378L0 9.05206C0.792445 8.69483 1.65524 8.48204 2.53809 8.42706Z" fill="white"></path><path d="M41.7028 24.6206L36.8516 10.0428H39.9933L43.3198 20.4794L46.3923 10.8794H49.3492L52.3985 20.4794L55.7482 10.0428H58.8668L54.0156 24.6206H51.128L47.6166 14.1213H48.1017L44.6135 24.6206H41.7028Z" fill="white"></path><path d="M60.5645 24.6206V14.3095H63.429V24.6206H60.5645ZM60.4721 12.72V10.0428H63.5445V12.72H60.4721Z" fill="white"></path><path d="M70.2003 24.8298C69.3533 24.8298 68.6141 24.7182 67.9826 24.4951C67.3512 24.272 66.8122 23.9932 66.3656 23.6585C65.9344 23.3239 65.5878 23.0032 65.326 22.6964L67.2896 21.1487C67.5514 21.5391 67.921 21.9017 68.3985 22.2363C68.8913 22.557 69.4996 22.7174 70.2234 22.7174C70.7933 22.7174 71.2322 22.6198 71.5402 22.4246C71.8636 22.2154 72.0253 21.9574 72.0253 21.6507C72.0253 21.3997 71.9252 21.1975 71.725 21.0442C71.5248 20.8768 71.2553 20.7444 70.9165 20.6468C70.5776 20.5352 70.2003 20.4306 69.7845 20.333C69.3533 20.2215 68.9067 20.096 68.4447 19.9566C67.9826 19.8171 67.5591 19.6359 67.1741 19.4128C66.7891 19.1757 66.4734 18.876 66.227 18.5134C65.996 18.1509 65.8805 17.6977 65.8805 17.154C65.8805 16.2476 66.2732 15.5156 67.0586 14.9579C67.844 14.3862 68.8836 14.1004 70.1772 14.1004C71.0859 14.1004 71.9098 14.2677 72.649 14.6023C73.3883 14.923 73.9735 15.3901 74.4047 16.0036L72.6259 17.2794C72.3487 16.8751 71.9791 16.5753 71.5171 16.3801C71.0705 16.171 70.593 16.0664 70.0848 16.0664C69.6382 16.0664 69.2686 16.1431 68.976 16.2964C68.6988 16.4498 68.5602 16.659 68.5602 16.9239C68.5602 17.1052 68.6218 17.2585 68.745 17.384C68.8836 17.5095 69.0992 17.6211 69.3918 17.7187C69.6998 17.8023 70.1002 17.8999 70.593 18.0115C71.0551 18.1091 71.5325 18.2276 72.0253 18.367C72.5181 18.5065 72.9801 18.6947 73.4114 18.9317C73.8426 19.1688 74.1891 19.4825 74.4509 19.8729C74.7127 20.2633 74.8436 20.7583 74.8436 21.3579C74.8436 22.0411 74.6511 22.6476 74.2661 23.1775C73.8811 23.6934 73.3421 24.0978 72.649 24.3906C71.956 24.6834 71.1398 24.8298 70.2003 24.8298Z" fill="white"></path><path d="M82.3671 24.8298C81.2583 24.8298 80.2727 24.5997 79.4102 24.1396C78.5478 23.6795 77.8625 23.045 77.3542 22.2363C76.8614 21.4137 76.615 20.4864 76.615 19.4546C76.615 18.4089 76.8614 17.4886 77.3542 16.6938C77.8471 15.8851 78.5247 15.2507 79.3871 14.7906C80.265 14.3304 81.2583 14.1004 82.3671 14.1004C83.4606 14.1004 84.4385 14.3304 85.301 14.7906C86.1634 15.2507 86.841 15.8851 87.3338 16.6938C87.8267 17.4886 88.0731 18.4089 88.0731 19.4546C88.0731 20.4864 87.8267 21.4067 87.3338 22.2154C86.841 23.0241 86.1634 23.6655 85.301 24.1396C84.4385 24.5997 83.4606 24.8298 82.3671 24.8298ZM82.3671 22.55C82.9524 22.55 83.4529 22.4246 83.8687 22.1736C84.2999 21.9226 84.6233 21.567 84.8389 21.1069C85.07 20.6468 85.1855 20.096 85.1855 19.4546C85.1855 18.7993 85.07 18.2485 84.8389 17.8023C84.6233 17.3422 84.2999 16.9936 83.8687 16.7566C83.4529 16.5056 82.9524 16.3801 82.3671 16.3801C81.7665 16.3801 81.2506 16.5056 80.8194 16.7566C80.3882 16.9936 80.057 17.3422 79.826 17.8023C79.595 18.2485 79.4795 18.7993 79.4795 19.4546C79.4795 20.096 79.595 20.6468 79.826 21.1069C80.057 21.567 80.3882 21.9226 80.8194 22.1736C81.2506 22.4246 81.7665 22.55 82.3671 22.55Z" fill="white"></path><path d="M90.3662 24.6206V14.3095H93.2538V17.1121L92.8149 17.154C92.8611 16.5544 93.0613 16.0245 93.4155 15.5644C93.7697 15.1043 94.201 14.7487 94.7092 14.4977C95.2328 14.2328 95.7641 14.1004 96.3032 14.1004C96.6882 14.1004 97.0501 14.1492 97.3889 14.2468C97.7431 14.3304 98.105 14.4768 98.4746 14.686L97.0886 17.0285C96.9192 16.9448 96.7036 16.8681 96.4418 16.7984C96.1799 16.7287 95.9181 16.6938 95.6563 16.6938C95.3483 16.6938 95.048 16.7426 94.7554 16.8402C94.4782 16.9378 94.2241 17.0912 93.9931 17.3004C93.7775 17.5095 93.6003 17.7884 93.4617 18.137C93.4001 18.3322 93.3462 18.5832 93.3 18.8899C93.2692 19.1827 93.2538 19.615 93.2538 20.1866V24.6206H90.3662Z" fill="white"></path><path d="M97.7394 24.6206V21.8598H100.789V24.6206H97.7394Z" fill="white"></path><path d="M102.226 24.6206L108.695 10.0428H110.935L117.404 24.6206H114.146L109.85 14.0376L105.484 24.6206H102.226ZM106.477 21.7762L107.401 19.35H112.252L113.222 21.7762H106.477Z" fill="white"></path><path d="M119.155 24.6206V10.0428H122.135V24.6206H119.155Z" fill="white"></path></svg>